<svg version="1.2" xmlns="http://www.w3.org/2000/svg" viewBox="0 0 1122 1122" width="500" height="500">
	<title>43873-ai</title>
	<defs>
		<linearGradient id="g1" x1="329.4" y1="883" x2="665.2" y2="841.1" gradientUnits="userSpaceOnUse">
			<stop offset="0" stop-color="#ffffff"/>
			<stop offset="1" stop-color="#6a6a6a"/>
		</linearGradient>
		<clipPath clipPathUnits="userSpaceOnUse" id="cp1">
			<path d="m903.63 699.42c-58.16 88.63-159.24 140.58-261.49 158.73-33.95 6.03-70.67 4.91-102.75 19.09-28.95 12.79-163.74 74.03-179.71 66.95 0 0-10.31-3.1-5.24-23.2 5.08-20.09 16.24-60.28 16.24-60.28 0 0 11.1-22.83-26.92-45.18q-1.32-0.78-2.62-1.59c-40.04-24.95-75.3-62.77-105.26-98.79-35.37-42.53-61.74-97.26-60.18-153.6 5.24-188.98 172.52-298.55 385.33-298.55 212.81 0 385.33 133.66 385.33 298.55 0 49.12-15.88 96.96-42.73 137.87z"/>
		</clipPath>
		<linearGradient id="g2" x1="387.7" y1="938.3" x2="272.9" y2="436.2" gradientUnits="userSpaceOnUse">
			<stop offset="0" stop-color="#ced5da"/>
			<stop offset="1" stop-color="#fefefe"/>
		</linearGradient>
		<linearGradient id="g3" x1="423.4" y1="597" x2="423.4" y2="597" gradientUnits="userSpaceOnUse">
			<stop offset="0" stop-color="#d0d7d9"/>
			<stop offset="1" stop-color="#d0d7d9"/>
		</linearGradient>
		<linearGradient id="g4" x1="567.1" y1="597" x2="567.1" y2="597" gradientUnits="userSpaceOnUse">
			<stop offset="0" stop-color="#d0d7d9"/>
			<stop offset="1" stop-color="#d0d7d9"/>
		</linearGradient>
		<linearGradient id="g5" x1="710.8" y1="597" x2="710.8" y2="597" gradientUnits="userSpaceOnUse">
			<stop offset="0" stop-color="#d0d7d9"/>
			<stop offset="1" stop-color="#d0d7d9"/>
		</linearGradient>
	</defs>
	<style>
		.s0 { fill: url(#g1) } 
		.s1 { fill: url(#g2) } 
		.s2 { opacity: .5;fill: #f8f8fa } 
		.s3 { fill: url(#g3) } 
		.s4 { fill: #b8c8cc } 
		.s5 { fill: url(#g4) } 
		.s6 { fill: url(#g5) } 
	</style>
	<g id="Shadow">
		<g id="&lt;Group&gt;" style="opacity: .5;mix-blend-mode: multiply">
			<g id="&lt;Group&gt;">
				<g id="&lt;Group&gt;">
					<path id="&lt;Mesh&gt;" class="s0" d="m329.2 883.1c0.6-1.4 64.6-11.9 71.5-13.3 8.7 6.2 39.4 20.6 44.1 32.8 6 15.9-17.8 31.1-27.1 40.6-26.9 4.2-48.9 6.9-54.3 5.9-6.4-0.8-4.6-6-1-9.4 8.8-8.2 25.9-23.3 26.8-24 0.5-0.3 9.5-5.8-4-12.5-3.2-1.7-7.8-3.3-14.1-5-0.8-0.2-1.6-0.4-2.3-0.7-14.3-4-27.5-9-39.6-14.4zm-77.5-63.5c32.3-9.2 64.6-17 97.1-23.3 3.9 29.5 28.9 57.5 51.9 73.5-6.9 1.4-70.9 11.9-71.5 13.3q-7.1-3.1-13.7-6.5c-11.4-5.6-21.7-11.6-31.1-17.4-19-11.7-31.9-25.5-32.7-39.6zm17.6-31c23.9-10.2 51.2-18.3 81-24.5-6.2 9.3-2.9 22.4-1.5 32.2-32.5 6.3-64.8 14.1-97.1 23.3-0.3-5.5 1.2-11.1 5-16.7 3.4-5 7.7-9.7 12.6-14.3zm18.7-13.8c18.8-11.5 43.1-21 71.4-28.4-5.7 5.7-5.5 12-9.1 17.7-29.8 6.2-57.1 14.3-81 24.5 5.4-4.9 11.7-9.5 18.7-13.8zm112.7 95c36.2-7.6 79-15.4 110.9-20.1 9 9.6 34.6 24.5 37.6 37.2 3.4 14.6-11.2 26.5-20.1 37.4-25.6 4.6-73.4 13.1-111.4 18.9 9.3-9.5 33.1-24.7 27.1-40.6-4.7-12.2-35.4-26.6-44.1-32.8zm-51.9-73.5c37-7.2 74.4-12.4 112.4-15.4 7.1 25.6 30 47 50.4 68.8-31.9 4.7-74.7 12.5-110.9 20.1-23-16-48-44-51.9-73.5zm1.5-32.2c33.8-7.1 71-11.8 110.5-14.4-2.7 11.2-2.3 21.5 0.4 31.2-38 3-75.4 8.2-112.4 15.4-1.4-9.8-4.7-22.9 1.5-32.2zm9.1-17.7c32.2-8.4 69.6-14.1 109.9-17.4-4.1 7.3-6.8 14.1-8.5 20.7-39.5 2.6-76.7 7.3-110.5 14.4 3.6-5.7 3.4-12 9.1-17.7zm152.2 103.3c50.8-6.8 102.3-8.2 153.8-8.5 11.5 31.8 15.8 44.2-7.1 71.3q-12.9 1.3-26.1 2.3c-28.9 2.2-60.1 1.8-89.6 7.1-3.2 0.5-7.8 1.4-13.5 2.4 8.9-10.9 23.5-22.8 20.1-37.4-3-12.7-28.6-27.6-37.6-37.2zm-50.4-68.8c58.3-5.7 118.3-10 178-9.4 6.1 22.2 19 49.7 26.2 69.7-51.5 0.3-103 1.7-153.8 8.5-20.4-21.8-43.3-43.2-50.4-68.8zm-0.4-31.2c57.4-4.9 116.1-7.9 174.3-5.4 0.3 8.6 1.7 18.8 4.1 27.2-59.7-0.6-119.7 3.7-178 9.4-2.7-9.7-3.1-20-0.4-31.2zm8.5-20.7c47.7-3.8 99.4-4 151.4-0.7q8.5 0.5 16.8 1.2c-1 5.2-2.6 9.8-2.4 14.8-58.2-2.5-116.9 0.5-174.3 5.4 1.7-6.6 4.4-13.4 8.5-20.7zm196.1 112.2c33.4-0.2 66.8 0 99.9-0.7 1.5 27.7-6.9 41.4-25.4 59.2-25.4 5.6-53.1 9.8-81.6 12.8 22.9-27.1 18.6-39.5 7.1-71.3zm-26.2-69.7c38.6 0.4 77.1 2.8 114.8 8.2 5.7 20.5 10.2 42.1 11.3 60.8-33.1 0.7-66.5 0.5-99.9 0.7-7.2-20-20.1-47.5-26.2-69.7zm-4.1-27.2c37.7 1.7 75.3 5.7 112.1 12.9 2.4 7.2 4.7 14.8 6.8 22.5-37.7-5.4-76.2-7.8-114.8-8.2-2.4-8.4-3.8-18.6-4.1-27.2zm2.4-14.8c39.1 3.2 74.7 8.5 105.6 15.5q2 5.9 4.1 12.2c-36.8-7.2-74.4-11.2-112.1-12.9-0.2-5 1.4-9.6 2.4-14.8zm127.8 111c32.9 0 66.2-2.5 99.1-0.2-5.4 8.3-14.3 16.3-26 23.6q-7 4.4-15 8.4c-22.6 11.2-51.3 20.3-83.5 27.4 18.5-17.8 26.9-31.5 25.4-59.2zm-11.3-60.8c36.8 5.1 75.5 9.4 110.4 23.7 4.3 6.6 6.3 13.4 5.9 20.4-0.4 5.6-2.4 11.1-5.9 16.5-32.9-2.3-66.2 0.2-99.1 0.2-1.1-18.7-5.6-40.3-11.3-60.8zm-6.8-22.5c35.8 7.2 74.2 14.6 106.4 33.8 4.5 4 8.1 8.2 10.8 12.4-34.9-14.3-73.6-18.6-110.4-23.7-2.1-7.7-4.4-15.3-6.8-22.5zm-4.1-12.2c32.6 7.4 60 16.6 80.8 26.9 7.9 3.9 14.9 8 21 12.2q4.7 3.4 8.7 6.9c-32.2-19.2-70.6-26.6-106.4-33.8q-2.1-6.3-4.1-12.2z"/>
				</g>
			</g>
		</g>
	</g>
	<g id="Object">
		<g id="&lt;Clip Group&gt;" clip-path="url(#cp1)">
			<g id="&lt;Group&gt;">
				<g id="&lt;Group&gt;">
					<path id="&lt;Mesh&gt;" fill-rule="evenodd" class="s1" d="m359.7 944.2c-4.3-1.1-6.2-4.7-6.5-10.2-0.5-9.2 3.4-23.4 8-38.7 4.3-14.5 9.1-30 11-42.9 2-13.1-5.2-25.8-17.3-31.4-9.5-4.4-23.3-11.4-39.1-21.3-54.1-33.8-131.5-101.5-139.4-214.7-1.2-15.6-0.9-32.2 0.9-49.7 2.3-22.6 7-43.7 13.7-63.6 15-44.3 40.1-81.6 71.9-112.2q2.2-2.1 4.4-4.2c18.4-17 38.8-31.7 60.6-44.3 33.6-19.3 70.7-33.6 108.9-42.7 36.7-8.7 74.4-12.8 111.1-12.2 19.7 0.3 39.1 2 57.8 5 49.7 7.9 97 20.6 139.9 38 36.7 14.9 70.2 33.3 99.2 55 1 0.9 0.8 0.8 1.8 1.7q9.8 7.3 19 15.2-1.5-1.4-3.1-2.8-8.6-7.3-17.7-14.1c1 0.9 0.8 0.8 1.8 1.7q9.8 7.3 19 15.2c22.5 19.8 41.6 41.9 56.5 66.5 12 19.7 21.2 40.9 27.4 63.6 4.8 17.4 7.8 35.8 8.8 55 2 39.1-8.9 77.3-29.1 112.8-16.7 29.5-39.9 57.1-67.4 81.8-9.4 8.5-19.4 16.6-29.7 24.4q-8.2 6-16.6 11.8c-26.9 18.2-56.2 33.9-86.5 46.4-44.5 18.3-91.4 29.8-136.6 32.2q-9.2 0.5-18.2 2c-14.6 2.4-28.9 6.8-42.4 12.9-12.1 5.5-26.7 12.1-42.3 18.9-35 15.2-74.9 31.6-101.7 39.9-13.4 4.1-23.5 6.1-28.1 5zm502.1-193.5c-5.8 3.6-8.6 3.8-18.4 11.5 6-3.4 12.6-7.9 18.4-11.5z"/>
					<path id="&lt;Path&gt;" class="s2" d="m407.6 325.3c117.5-48.9 263.2-42.8 372 21.1 33.7 19.8 62.1 48 80.2 83.3 11.8 23.2 20.9 49.4 23.8 75.4 2.1 19.2 0 39.4-9.1 56.3-46.5 85.9-172.1 42.9-242.4 25.3-37.2-9.3-74.7-17.4-112.8-21.8-33.8-3.9-68-0.8-102-4.3-42.5-4.3-95.9-11.7-132.9-34.1-25-15.3-40.6-40.8-32.3-71 4.7-17.1 15.5-31.9 27.8-44.6 21.6-22.1 45.7-40.3 71.7-56.7 17.7-11.1 36.4-20.8 56-28.9z"/>
					<path id="&lt;Path&gt;" class="s2" d="m256.4 537.9c15.5 2.9 30.2 9.2 44.7 15.7 20.5 9.1 42.3 20.3 51.6 40.7 6.2 13.5 5.7 29.3 1 43.4-4.8 14-13.5 26.4-23.3 37.5-10 11.1-22.8 21.7-37.7 21.4-11.9-0.2-22.8-7.7-29.9-17.3-7.1-9.5-11-21-14.5-32.5-5.4-18.2-30.6-116.1 8.1-108.9z"/>
				</g>
				<g id="&lt;Group&gt;">
					<g id="&lt;Group&gt;">
						<path id="&lt;Mesh&gt;" class="s3" d="m414.8 596c3.1-0.5 6.1-2.1 9.2-3.9 2.9 1.4 6 2.7 9 3.7-3.2 0.8-6.4 1.2-9.6 1.2q-4.3 0-8.6-1zm-29.6-30.5c0.4-3.1 1.8-6.2 3.6-9.3 7.3 15.5 19.9 28.3 35.2 35.9-3.1 1.8-6.1 3.4-9.2 3.9-6.9-1.5-13.5-5-18.9-10.4-5.7-5.7-9.3-12.8-10.7-20.1zm-0.7-7.5c0-3.2 0.4-6.4 1.2-9.5 0.8 2.6 1.9 5.2 3.1 7.7-1.8 3.1-3.2 6.2-3.6 9.3q-0.7-3.7-0.7-7.5zm39.5 34.1c2.6-1.7 5.3-3.5 7.8-5.1q4.4 3.1 9.1 5.8-3.9 2-7.9 3c-3-1-6.1-2.3-9-3.7zm-35.2-35.9c1.5-2.6 3.3-5.2 4.8-7.8 10.2 15 23.3 28.3 38.2 38.6-2.5 1.6-5.2 3.4-7.8 5.1-15.3-7.6-27.9-20.4-35.2-35.9zm-3.1-7.7q1-4.1 2.9-7.9 2.4 4 5 7.8c-1.5 2.6-3.3 5.2-4.8 7.8-1.2-2.5-2.3-5.1-3.1-7.7zm46.1 38.5c4.6-2.7 9.4-6.5 13.9-11 2.4 2.5 5.2 4.6 7.7 6.8-3.4 4.2-7.7 7.6-12.5 10q-4.7-2.7-9.1-5.8zm-38.2-38.6c2.7-4.7 6.6-9.6 11.1-14 12.3 10.2 29.7 30.2 41 41.6-4.5 4.5-9.3 8.3-13.9 11-14.9-10.3-28-23.6-38.2-38.6zm-5-7.8c2.4-4.8 5.8-9 9.8-12.3 2 1.6 4.3 4.4 6.3 6.1-4.5 4.4-8.4 9.3-11.1 14q-2.6-3.8-5-7.8zm57.1 35.4c5-5 9.6-10.9 12.5-17 1 2.7 2.5 5.2 3.1 7.9-1.3 5.7-4 11.2-7.9 15.9-2.5-2.2-5.3-4.3-7.7-6.8zm-41-41.6c5.2-4.9 11.1-9.2 17.1-11.9 14.7 4.5 31.2 22.2 36.4 36.5-2.9 6.1-7.5 12-12.5 17-11.3-11.4-28.7-31.4-41-41.6zm-6.3-6.1c4.6-3.9 10-6.6 15.8-8.1 2.4 0.4 5.2 1.6 7.6 2.3-6 2.7-11.9 7-17.1 11.9-2-1.7-4.3-4.5-6.3-6.1zm59.8 30.7c1.5-3.2 2.6-6.4 3.2-9.5q0.9 4.2 0.9 8.5 0 4.5-1 8.9c-0.6-2.7-2.1-5.2-3.1-7.9zm-36.4-36.5c3-1.3 6.1-2.3 9-2.7 7.4 1.5 14.4 5 20.1 10.7 5.4 5.4 8.9 12 10.5 19-0.6 3.1-1.7 6.3-3.2 9.5-5.2-14.3-21.7-32-36.4-36.5zm-7.6-2.3c3-0.7 6.1-1.1 9.2-1.1q3.7 0 7.4 0.7c-2.9 0.4-6 1.4-9 2.7-2.4-0.7-5.2-1.9-7.6-2.3z"/>
						<g id="&lt;Group&gt;" style="opacity: .5">
							<path id="&lt;Path&gt;" class="s4" d="m451 585.6c-10.8 10.7-26.2 13.8-39.8 9.4 9.6-0.3 19-4.1 26.3-11.4 15.2-15.2 15.2-39.8 0-55-4.5-4.4-9.8-7.6-15.4-9.4 10.4-0.3 20.9 3.4 28.9 11.3 15.2 15.2 15.2 39.9 0 55.1z"/>
						</g>
					</g>
					<g id="&lt;Group&gt;">
						<path id="&lt;Mesh&gt;" class="s5" d="m558.5 596c3-0.5 6.1-2.1 9.2-3.9 2.9 1.4 6 2.7 8.9 3.7-3.1 0.8-6.3 1.2-9.5 1.2q-4.4 0-8.6-1zm-29.6-30.5c0.4-3.1 1.8-6.2 3.6-9.3 7.2 15.5 19.9 28.3 35.2 35.9-3.1 1.8-6.2 3.4-9.2 3.9-7-1.5-13.5-5-18.9-10.4-5.7-5.7-9.3-12.8-10.7-20.1zm-0.7-7.5c0-3.2 0.3-6.4 1.1-9.5 0.9 2.6 2 5.2 3.2 7.7-1.8 3.1-3.2 6.2-3.6 9.3q-0.7-3.7-0.7-7.5zm39.5 34.1c2.6-1.7 5.2-3.5 7.8-5.1q4.4 3.1 9 5.8-3.8 2-7.9 3c-2.9-1-6-2.3-8.9-3.7zm-35.2-35.9c1.5-2.6 3.3-5.2 4.8-7.8 10.2 15 23.3 28.3 38.2 38.6-2.6 1.6-5.2 3.4-7.8 5.1-15.3-7.6-28-20.4-35.2-35.9zm-3.2-7.7q1.1-4.1 3-7.9 2.3 4 5 7.8c-1.5 2.6-3.3 5.2-4.8 7.8-1.2-2.5-2.3-5.1-3.2-7.7zm46.2 38.5c4.5-2.7 9.4-6.5 13.9-11 2.4 2.5 5.2 4.6 7.7 6.8-3.5 4.2-7.8 7.6-12.6 10q-4.6-2.7-9-5.8zm-38.2-38.6c2.7-4.7 6.6-9.6 11.1-14 12.3 10.2 29.7 30.2 41 41.6-4.5 4.5-9.4 8.3-13.9 11-14.9-10.3-28-23.6-38.2-38.6zm-5-7.8c2.4-4.8 5.8-9 9.8-12.3 1.9 1.6 4.3 4.4 6.3 6.1-4.5 4.4-8.4 9.3-11.1 14q-2.7-3.8-5-7.8zm57.1 35.4c5-5 9.5-10.9 12.5-17 1 2.7 2.5 5.2 3.1 7.9-1.4 5.7-4 11.2-7.9 15.9-2.5-2.2-5.3-4.3-7.7-6.8zm-41-41.6c5.2-4.9 11.1-9.2 17.1-11.9 14.7 4.5 31.1 22.2 36.4 36.5-3 6.1-7.5 12-12.5 17-11.3-11.4-28.7-31.4-41-41.6zm-6.3-6.1c4.6-3.9 10-6.6 15.8-8.1 2.4 0.4 5.2 1.6 7.6 2.3-6 2.7-11.9 7-17.1 11.9-2-1.7-4.4-4.5-6.3-6.1zm59.8 30.7c1.5-3.2 2.6-6.4 3.1-9.5q1 4.2 1 8.5 0 4.5-1 8.9c-0.6-2.7-2.1-5.2-3.1-7.9zm-36.4-36.5c3-1.3 6.1-2.3 9-2.7 7.4 1.5 14.4 5 20.1 10.7 5.4 5.4 8.9 12 10.4 19-0.5 3.1-1.6 6.3-3.1 9.5-5.3-14.3-21.7-32-36.4-36.5zm-7.6-2.3c3-0.7 6.1-1.1 9.2-1.1q3.7 0 7.4 0.7c-2.9 0.4-6 1.4-9 2.7-2.4-0.7-5.2-1.9-7.6-2.3z"/>
						<g id="&lt;Group&gt;" style="opacity: .5">
							<path id="&lt;Path&gt;" class="s4" d="m594.7 585.6c-10.8 10.7-26.3 13.8-39.8 9.4 9.6-0.3 19-4.1 26.2-11.4 15.2-15.2 15.2-39.8 0-55-4.4-4.4-9.7-7.6-15.3-9.4 10.4-0.3 20.9 3.4 28.9 11.3 15.2 15.2 15.2 39.9 0 55.1z"/>
						</g>
					</g>
					<g id="&lt;Group&gt;">
						<path id="&lt;Mesh&gt;" class="s6" d="m702.2 596c3-0.5 6.1-2.1 9.2-3.9 2.9 1.4 5.9 2.7 8.9 3.7-3.1 0.8-6.3 1.2-9.5 1.2q-4.4 0-8.6-1zm-29.6-30.5c0.3-3.1 1.8-6.2 3.6-9.3 7.2 15.5 19.9 28.3 35.2 35.9-3.1 1.8-6.2 3.4-9.2 3.9-7-1.5-13.6-5-19-10.4-5.7-5.7-9.2-12.8-10.6-20.1zm-0.8-7.5c0-3.2 0.4-6.4 1.2-9.5 0.9 2.6 2 5.2 3.2 7.7-1.8 3.1-3.3 6.2-3.6 9.3q-0.8-3.7-0.8-7.5zm39.6 34.1c2.6-1.7 5.2-3.5 7.8-5.1q4.4 3.1 9 5.8-3.8 2-7.9 3c-3-1-6-2.3-8.9-3.7zm-35.2-35.9c1.5-2.6 3.3-5.2 4.7-7.8 10.2 15 23.4 28.3 38.3 38.6-2.6 1.6-5.2 3.4-7.8 5.1-15.3-7.6-28-20.4-35.2-35.9zm-3.2-7.7q1.1-4.1 3-7.9 2.3 4 4.9 7.8c-1.4 2.6-3.2 5.2-4.7 7.8-1.2-2.5-2.3-5.1-3.2-7.7zm46.2 38.5c4.5-2.7 9.4-6.5 13.8-11 2.5 2.5 5.3 4.6 7.8 6.8-3.5 4.2-7.8 7.6-12.6 10q-4.6-2.7-9-5.8zm-38.3-38.6c2.8-4.7 6.7-9.6 11.2-14 12.3 10.2 29.7 30.2 40.9 41.6-4.4 4.5-9.3 8.3-13.8 11-14.9-10.3-28.1-23.6-38.3-38.6zm-4.9-7.8c2.4-4.8 5.8-9 9.8-12.3 1.9 1.6 4.3 4.4 6.3 6.1-4.5 4.4-8.4 9.3-11.2 14q-2.6-3.8-4.9-7.8zm57 35.4c5.1-5 9.6-10.9 12.6-17 1 2.7 2.5 5.2 3.1 7.9-1.4 5.7-4 11.2-7.9 15.9-2.5-2.2-5.3-4.3-7.8-6.8zm-40.9-41.6c5.1-4.9 11.1-9.2 17-11.9 14.8 4.5 31.2 22.2 36.5 36.5-3 6.1-7.5 12-12.6 17-11.2-11.4-28.6-31.4-40.9-41.6zm-6.3-6.1c4.6-3.9 10-6.6 15.8-8.1 2.4 0.4 5.2 1.6 7.5 2.3-5.9 2.7-11.9 7-17 11.9-2-1.7-4.4-4.5-6.3-6.1zm59.8 30.7c1.5-3.2 2.6-6.4 3.1-9.5q1 4.2 1 8.5 0 4.5-1 8.9c-0.6-2.7-2.1-5.2-3.1-7.9zm-36.5-36.5c3.1-1.3 6.1-2.3 9.1-2.7 7.4 1.5 14.4 5 20.1 10.7 5.4 5.4 8.9 12 10.4 19-0.5 3.1-1.6 6.3-3.1 9.5-5.3-14.3-21.7-32-36.5-36.5zm-7.5-2.3c3-0.7 6-1.1 9.2-1.1q3.7 0 7.4 0.7c-3 0.4-6 1.4-9.1 2.7-2.3-0.7-5.1-1.9-7.5-2.3z"/>
						<g id="&lt;Group&gt;" style="opacity: .5">
							<path id="&lt;Path&gt;" class="s4" d="m738.3 585.6c-10.7 10.7-26.2 13.8-39.7 9.4 9.5-0.3 19-4.1 26.2-11.4 15.2-15.2 15.2-39.8 0-55-4.4-4.4-9.7-7.6-15.3-9.4 10.4-0.3 20.9 3.4 28.8 11.3 15.2 15.2 15.2 39.9 0 55.1z"/>
						</g>
					</g>
				</g>
			</g>
		</g>
	</g>
</svg>