<svg width="338" height="298" viewBox="0 0 338 298" fill="none" xmlns="http://www.w3.org/2000/svg">
<path d="M129.082 79.8068L257.327 208.253C261.237 212.169 262.762 217.871 261.33 223.216L214.276 398.826C212.844 404.171 208.671 408.347 203.327 409.783L28.041 456.898C22.6848 458.338 16.9676 456.806 13.0488 452.881L-115.196 324.435C-119.106 320.519 -120.631 314.817 -119.199 309.472L-72.1445 133.862C-70.7124 128.517 -66.5397 124.341 -61.1961 122.905L114.09 75.7896C119.446 74.3499 125.164 75.8819 129.082 79.8068Z" stroke="#E5D7FE"/>
<path d="M118.565 59.0898C123.921 57.6502 129.638 59.1821 133.557 63.107L274.001 203.771C277.91 207.687 279.436 213.39 278.004 218.735L226.475 411.044C225.043 416.389 220.87 420.565 215.526 422.001L23.5664 473.598C18.2102 475.038 12.4929 473.506 8.57417 469.581L-131.87 328.917C-135.779 325.001 -137.305 319.298 -135.873 313.954L-84.3434 121.644C-82.9113 116.299 -78.7386 112.123 -73.395 110.687L118.565 59.0898Z" stroke="#E5D7FE"/>
<path d="M109.429 93.1852C114.785 91.7455 120.502 93.2775 124.421 97.2024L239.959 212.921C243.868 216.837 245.394 222.54 243.962 227.885L201.568 386.099C200.136 391.444 195.964 395.62 190.62 397.056L32.702 439.503C27.3458 440.942 21.6285 439.411 17.7098 435.486L-97.8277 319.767C-101.737 315.851 -103.263 310.148 -101.831 304.803L-59.4374 146.589C-58.0053 141.244 -53.8326 137.068 -48.489 135.632L109.429 93.1852Z" stroke="#CAAFFD"/>
<path d="M105.318 109.965C110.666 108.533 116.371 110.061 120.286 113.975L223.92 217.576C227.837 221.492 229.367 227.2 227.934 232.55L190.02 374.045C188.587 379.395 184.408 383.573 179.057 385.006L37.5072 422.91C32.1597 424.341 26.4545 422.813 22.5395 418.899L-81.0947 315.298C-85.0116 311.382 -86.5416 305.674 -85.1081 300.324L-47.1947 158.829C-45.7612 153.48 -41.5821 149.301 -36.2321 147.869L105.318 109.965Z" stroke="#AB87FB"/>
<path d="M100.827 126.678C106.183 125.238 111.9 126.77 115.819 130.695L207.213 222.232C211.122 226.148 212.648 231.851 211.216 237.196L177.679 362.358C176.246 367.703 172.074 371.879 166.73 373.315L41.8121 406.892C36.4559 408.332 30.7387 406.8 26.8199 402.875L-64.5739 311.338C-68.4834 307.422 -70.0091 301.719 -68.577 296.374L-35.0398 171.212C-33.6076 165.867 -29.435 161.691 -24.0914 160.255L100.827 126.678Z" stroke="#9168F7"/>
</svg>
