<svg width="533" height="533" viewBox="0 0 533 533" fill="none" xmlns="http://www.w3.org/2000/svg">
<path d="M324.082 79.8068L452.327 208.253C456.237 212.169 457.762 217.871 456.33 223.216L409.276 398.826C407.844 404.171 403.671 408.347 398.327 409.783L223.041 456.898C217.685 458.338 211.968 456.806 208.049 452.881L79.804 324.435C75.8945 320.519 74.3688 314.817 75.8009 309.472L122.855 133.862C124.288 128.517 128.46 124.341 133.804 122.905L309.09 75.7896C314.446 74.3499 320.164 75.8819 324.082 79.8068Z" stroke="#E5D7FE"/>
<path d="M328.557 63.107L469.001 203.771C472.91 207.687 474.436 213.39 473.004 218.735L421.475 411.044C420.043 416.389 415.87 420.565 410.526 422.001L218.566 473.598C213.21 475.038 207.493 473.506 203.574 469.581L63.1305 328.917C59.2209 325.001 57.6952 319.298 59.1274 313.954L110.657 121.644C112.089 116.299 116.261 112.123 121.605 110.687L313.565 59.0898C318.921 57.6501 324.638 59.1821 328.557 63.107Z" stroke="#E5D7FE"/>
<path d="M319.421 97.2024L434.959 212.921C438.868 216.837 440.394 222.54 438.962 227.885L396.568 386.099C395.136 391.444 390.964 395.62 385.62 397.056L227.702 439.503C222.346 440.942 216.629 439.411 212.71 435.486L97.1723 319.767C93.2627 315.851 91.737 310.148 93.1692 304.803L135.563 146.589C136.995 141.244 141.167 137.068 146.511 135.632L304.429 93.1852C309.785 91.7455 315.502 93.2775 319.421 97.2024Z" stroke="#CAAFFD"/>
<path d="M315.286 113.975L418.92 217.576C422.837 221.492 424.367 227.2 422.934 232.55L385.02 374.045C383.587 379.395 379.407 383.573 374.057 385.006L232.507 422.91C227.16 424.341 221.455 422.813 217.539 418.899L113.905 315.298C109.988 311.382 108.458 305.674 109.892 300.324L147.805 158.829C149.239 153.48 153.418 149.301 158.768 147.869L300.318 109.965C305.666 108.533 311.371 110.061 315.286 113.975Z" stroke="#AB87FB"/>
<path d="M310.819 130.695L402.213 222.232C406.122 226.148 407.648 231.851 406.216 237.196L372.679 362.358C371.246 367.703 367.074 371.879 361.73 373.315L236.812 406.892C231.456 408.332 225.739 406.8 221.82 402.875L130.426 311.338C126.517 307.422 124.991 301.719 126.423 296.374L159.96 171.212C161.392 165.867 165.565 161.691 170.909 160.255L295.827 126.678C301.183 125.238 306.9 126.77 310.819 130.695Z" stroke="#9168F7"/>
<path d="M260.902 240C267.238 240 270.379 243.757 270.379 248.266C270.379 251.541 268.599 254.869 264.41 256.05L270.693 267H264.567L258.756 256.479H256.242V267H251.006V240H260.902ZM260.693 244.509H256.295V252.453H260.693C263.625 252.453 264.934 250.843 264.934 248.427C264.934 246.012 263.625 244.509 260.693 244.509Z" fill="white"/>
<path d="M283.574 267C277.239 267 274.097 263.243 274.097 258.734C274.097 255.459 275.877 252.131 280.066 250.95L273.783 240H279.909L285.721 250.521H288.234V240H293.522V267H283.574ZM283.784 262.491H288.182V254.547H283.784C280.851 254.547 279.542 256.157 279.542 258.573C279.542 260.988 280.851 262.491 283.784 262.491Z" fill="white"/>
<path d="M246.87 262.169H240.22L232 253.473L240.22 244.831H246.87L238.65 253.473L246.87 262.169Z" fill="#AB87FB"/>
<path d="M298.13 244.831H304.78L313 253.473L304.78 262.169H298.13L306.351 253.473L298.13 244.831Z" fill="#AB87FB"/>
</svg>
