<svg width="292" height="252" viewBox="0 0 292 252" fill="none" xmlns="http://www.w3.org/2000/svg">
<mask id="mask0_369_651" style="mask-type:alpha" maskUnits="userSpaceOnUse" x="0" y="0" width="292" height="252">
<rect width="292" height="252" fill="#C4C4C4"/>
</mask>
<g mask="url(#mask0_369_651)">
<mask id="mask1_369_651" style="mask-type:alpha" maskUnits="userSpaceOnUse" x="-131" y="-7" width="432" height="432">
<rect x="-130.5" y="-6.5" width="431" height="431" fill="#4F2B2B" stroke="black"/>
</mask>
<g mask="url(#mask1_369_651)">
<path d="M139.082 24.8068L267.327 153.253C271.237 157.169 272.762 162.871 271.33 168.216L224.276 343.826C222.844 349.171 218.671 353.347 213.327 354.783L38.041 401.898C32.6848 403.338 26.9676 401.806 23.0488 397.881L-105.196 269.435C-109.106 265.519 -110.631 259.817 -109.199 254.472L-62.1445 78.8619C-60.7124 73.5172 -56.5397 69.3412 -51.1961 67.9049L124.09 20.7896C129.446 19.3499 135.164 20.8819 139.082 24.8068Z" stroke="#E5D7FE"/>
<path d="M143.557 8.10699L284.001 148.771C287.91 152.687 289.436 158.39 288.004 163.735L236.475 356.044C235.043 361.389 230.87 365.565 225.526 367.001L33.5664 418.598C28.2102 420.038 22.4929 418.506 18.5742 414.581L-121.87 273.917C-125.779 270.001 -127.305 264.298 -125.873 258.954L-74.3434 66.6438C-72.9113 61.2991 -68.7386 57.1231 -63.395 55.6868L128.565 4.08984C133.921 2.65015 139.638 4.18208 143.557 8.10699Z" stroke="#E5D7FE"/>
<path d="M134.421 42.2024L249.959 157.921C253.868 161.837 255.394 167.54 253.962 172.885L211.568 331.099C210.136 336.444 205.964 340.62 200.62 342.056L42.702 384.503C37.3458 385.942 31.6286 384.411 27.7098 380.486L-87.8277 264.767C-91.7373 260.851 -93.263 255.148 -91.8308 249.803L-49.4374 91.5891C-48.0053 86.2443 -43.8326 82.0684 -38.489 80.6321L119.429 38.1852C124.785 36.7455 130.502 38.2775 134.421 42.2024Z" stroke="#CAAFFD"/>
<path d="M130.286 58.9751L233.92 162.576C237.837 166.492 239.367 172.2 237.934 177.55L200.02 319.045C198.587 324.395 194.407 328.573 189.057 330.006L47.5072 367.91C42.1597 369.341 36.4545 367.813 32.5395 363.899L-71.0947 260.298C-75.0116 256.382 -76.5416 250.674 -75.1081 245.324L-37.1947 103.829C-35.7612 98.4796 -31.5821 94.3011 -26.2321 92.8685L115.318 54.9645C120.666 53.5326 126.371 55.0613 130.286 58.9751Z" stroke="#AB87FB"/>
<path d="M125.819 75.6951L217.213 167.232C221.122 171.148 222.648 176.851 221.216 182.196L187.679 307.358C186.246 312.703 182.074 316.879 176.73 318.315L51.8121 351.892C46.4559 353.332 40.7387 351.8 36.8199 347.875L-54.5739 256.338C-58.4834 252.422 -60.0091 246.719 -58.577 241.374L-25.0398 116.212C-23.6076 110.867 -19.435 106.691 -14.0914 105.255L110.827 71.678C116.183 70.2383 121.9 71.7702 125.819 75.6951Z" stroke="#9168F7"/>
<path d="M63.9023 190C70.2378 190 73.3793 193.757 73.3793 198.266C73.3793 201.541 71.5991 204.869 67.4104 206.05L73.6935 217H67.5674L61.7555 206.479H59.2423V217H54.0063V190H63.9023ZM63.6928 194.509H59.2946V202.453H63.6928C66.625 202.453 67.934 200.843 67.934 198.427C67.934 196.012 66.625 194.509 63.6928 194.509Z" fill="white"/>
<path d="M86.5742 217C80.2387 217 77.0971 213.243 77.0971 208.734C77.0971 205.459 78.8773 202.131 83.0661 200.95L76.783 190H82.909L88.7209 200.521H91.2341V190H96.5224V217H86.5742ZM86.7836 212.491H91.1818V204.547H86.7836C83.8515 204.547 82.5425 206.157 82.5425 208.573C82.5425 210.988 83.8515 212.491 86.7836 212.491Z" fill="white"/>
<path d="M49.8701 212.169H43.2204L35 203.473L43.2204 194.831H49.8701L41.6496 203.473L49.8701 212.169Z" fill="#AB87FB"/>
<path d="M101.13 194.831H107.78L116 203.473L107.78 212.169H101.13L109.351 203.473L101.13 194.831Z" fill="#AB87FB"/>
</g>
</g>
</svg>
