<svg width="81" height="27" viewBox="0 0 81 27" fill="none" xmlns="http://www.w3.org/2000/svg">
<path d="M28.9023 0C35.2378 0 38.3793 3.75746 38.3793 8.2664C38.3793 11.5408 36.5991 14.8688 32.4104 16.0497L38.6935 27H32.5674L26.7555 16.4791H24.2423V27H19.0063V0H28.9023ZM28.6928 4.50895H24.2946V12.4533H28.6928C31.625 12.4533 32.934 10.8429 32.934 8.42744C32.934 6.01193 31.625 4.50895 28.6928 4.50895Z" fill="white"/>
<path d="M51.5742 27C45.2387 27 42.0971 23.2425 42.0971 18.7336C42.0971 15.4592 43.8773 12.1312 48.0661 10.9503L41.783 0H47.909L53.7209 10.5209H56.2341V0H61.5224V27H51.5742ZM51.7836 22.4911H56.1818V14.5467H51.7836C48.8515 14.5467 47.5425 16.1571 47.5425 18.5726C47.5425 20.9881 48.8515 22.4911 51.7836 22.4911Z" fill="white"/>
<path d="M14.8701 22.169H8.22043L0 13.4732L8.22043 4.83105H14.8701L6.64964 13.4732L14.8701 22.169Z" fill="#AB87FB"/>
<path d="M66.1301 4.83105H72.7798L81.0002 13.4732L72.7798 22.169H66.1301L74.3505 13.4732L66.1301 4.83105Z" fill="#AB87FB"/>
</svg>
