<svg width="54" height="18" viewBox="0 0 54 18" fill="none" xmlns="http://www.w3.org/2000/svg">
<path d="M19.2682 0C23.4918 0 25.5862 2.50497 25.5862 5.51093C25.5862 7.69384 24.3994 9.91252 21.6069 10.6998L25.7957 18H21.7116L17.837 10.9861H16.1615V18H12.6709V0H19.2682ZM19.1286 3.00596H16.1964V8.30219H19.1286C21.0833 8.30219 21.956 7.22863 21.956 5.61829C21.956 4.00795 21.0833 3.00596 19.1286 3.00596Z" fill="#6838F2"/>
<path d="M34.3827 18C30.159 18 28.0647 15.495 28.0647 12.4891C28.0647 10.3062 29.2515 8.08747 32.044 7.3002L27.8552 0H31.9393L35.8138 7.01392H37.4894V0H41.0149V18H34.3827ZM34.5223 14.994H37.4544V9.69781H34.5223C32.5676 9.69781 31.6949 10.7714 31.6949 12.3817C31.6949 13.992 32.5676 14.994 34.5223 14.994Z" fill="#6838F2"/>
<path d="M9.91338 14.7794H5.48028L0 8.98213L5.48028 3.2207H9.91338L4.4331 8.98213L9.91338 14.7794Z" fill="#AB87FB"/>
<path d="M44.0867 3.2207H48.5198L54 8.98213L48.5198 14.7794H44.0867L49.567 8.98213L44.0867 3.2207Z" fill="#AB87FB"/>
</svg>
