<svg width="604" height="604" viewBox="0 0 604 604" fill="none" xmlns="http://www.w3.org/2000/svg">
<path d="M294 28.6188C298.95 25.7607 305.05 25.7607 310 28.6188L534.755 158.381C539.706 161.239 542.755 166.521 542.755 172.238V431.762C542.755 437.479 539.706 442.761 534.755 445.619L310 575.381C305.05 578.239 298.95 578.239 294 575.381L69.2449 445.619C64.2945 442.761 61.2449 437.479 61.2449 431.762V172.238C61.2449 166.521 64.2945 161.239 69.2449 158.381L294 28.6188Z" fill="#E5D7FE"/>
<path d="M294.25 5.05181C299.046 2.28301 304.954 2.28301 309.75 5.05181L555.29 146.814C560.085 149.583 563.04 154.7 563.04 160.238V443.762C563.04 449.3 560.085 454.417 555.29 457.186L309.75 598.948C304.954 601.717 299.046 601.717 294.25 598.948L48.7103 457.186C43.9146 454.417 40.9603 449.3 40.9603 443.762V160.238C40.9603 154.7 43.9146 149.583 48.7103 146.814L294.25 5.05181Z" stroke="#E5D7FE"/>
<path d="M294 53.6188C298.95 50.7607 305.05 50.7607 310 53.6188L513.104 170.881C518.055 173.739 521.104 179.021 521.104 184.738V419.262C521.104 424.979 518.055 430.261 513.104 433.119L310 550.381C305.05 553.239 298.95 553.239 294 550.381L90.8956 433.119C85.9452 430.261 82.8956 424.979 82.8956 419.262V184.738C82.8956 179.021 85.9452 173.739 90.8956 170.881L294 53.6188Z" fill="#CAAFFD"/>
<path d="M294.513 77.6012C299.457 74.7531 305.543 74.7531 310.487 77.6012L493.24 182.884C498.198 185.74 501.253 191.026 501.253 196.748V407.252C501.253 412.974 498.198 418.26 493.24 421.116L310.487 526.399C305.543 529.247 299.457 529.247 294.513 526.399L111.76 421.116C106.802 418.26 103.747 412.974 103.747 407.252V196.748C103.747 191.026 106.802 185.74 111.76 182.884L294.513 77.6012Z" fill="#AB87FB"/>
<path d="M294.5 101.619C299.45 98.7607 305.55 98.7607 310.5 101.619L472.468 195.131C477.419 197.989 480.468 203.271 480.468 208.988V396.012C480.468 401.729 477.419 407.011 472.468 409.869L310.5 503.381C305.55 506.239 299.45 506.239 294.5 503.381L132.532 409.869C127.581 407.011 124.532 401.729 124.532 396.012V208.988C124.532 203.271 127.581 197.989 132.532 195.131L294.5 101.619Z" fill="#9168F7"/>
<path d="M293.967 125.664C298.934 122.78 305.066 122.78 310.033 125.664L449.918 206.875C454.85 209.738 457.885 215.009 457.885 220.712V383.288C457.885 388.991 454.85 394.262 449.918 397.125L310.033 478.336C305.066 481.22 298.934 481.22 293.967 478.336L154.082 397.125C149.151 394.262 146.115 388.991 146.115 383.288V220.712C146.115 215.009 149.151 209.738 154.082 206.875L293.967 125.664Z" fill="#6838F2"/>
</svg>
